<?xml version="1.0" encoding="UTF-8" standalone="no"?>
<!-- Created with Inkscape (http://www.inkscape.org/) -->

<svg
   width="302.13861mm"
   height="104.65046mm"
   viewBox="0 0 302.13861 104.65046"
   version="1.1"
   id="svg5"
   inkscape:export-filename="logo/jetty-orange-big-clear.png"
   inkscape:export-xdpi="308.64438"
   inkscape:export-ydpi="308.64438"
   inkscape:version="1.2 (dc2aeda, 2022-05-15)"
   sodipodi:docname="scorecard_logo.svg"
   xmlns:inkscape="http://www.inkscape.org/namespaces/inkscape"
   xmlns:sodipodi="http://sodipodi.sourceforge.net/DTD/sodipodi-0.dtd"
   xmlns="http://www.w3.org/2000/svg"
   xmlns:svg="http://www.w3.org/2000/svg">
  <sodipodi:namedview
     id="namedview7"
     pagecolor="#ffffff"
     bordercolor="#000000"
     borderopacity="0.25"
     inkscape:showpageshadow="2"
     inkscape:pageopacity="0.0"
     inkscape:pagecheckerboard="false"
     inkscape:deskcolor="#d1d1d1"
     inkscape:document-units="mm"
     showgrid="false"
     inkscape:lockguides="true"
     inkscape:zoom="2.406165"
     inkscape:cx="307.33553"
     inkscape:cy="177.66861"
     inkscape:window-width="3008"
     inkscape:window-height="1639"
     inkscape:window-x="0"
     inkscape:window-y="25"
     inkscape:window-maximized="1"
     inkscape:current-layer="text511"
     shape-rendering="crispEdges"
     showguides="true">
    <sodipodi:guide
       position="141.62925,104.10066"
       orientation="1,0"
       id="guide621"
       inkscape:locked="true" />
  </sodipodi:namedview>
  <defs
     id="defs2" />
  <g
     inkscape:label="Layer 1"
     inkscape:groupmode="layer"
     id="layer1"
     transform="translate(-28.247888,-64.940222)">
    <path
       id="text1839"
       style="font-style:normal;font-variant:normal;font-weight:bold;font-stretch:normal;font-size:143.745px;font-family:sans-serif;-inkscape-font-specification:'sans-serif, Bold';font-variant-ligatures:normal;font-variant-caps:normal;font-variant-numeric:normal;font-variant-east-asian:normal;fill:#f47124;fill-opacity:1;stroke-width:0.748671"
       d="M 92.818624,64.940222 V 83.138595 H 91.393905 V 105.19616 H 89.830176 V 74.412512 H 88.534648 V 117.22024 H 87.040682 V 68.219092 H 85.829903 V 95.420015 H 84.335937 V 68.266634 H 83.173735 V 130.92689 H 81.610006 V 85.014966 H 80.324813 V 107.07253 H 78.761084 V 76.2894 H 77.36582 v 42.80772 H 75.97159 V 89.675146 H 74.606299 V 71.905172 h -1.227832 v 59.503348 c 0,8.32896 -0.959391,13.82694 -2.877861,16.49408 -1.918469,2.62035 -5.193871,3.93051 -9.826273,3.93051 -4.585611,0 -8.001424,-1.84832 -10.247437,-5.54488 -1.497342,-2.43318 -2.362781,-6.59751 -2.596741,-12.4933 l -19.582267,2.24586 c 0.04679,10.99611 2.807525,19.34877 8.282182,25.05739 5.474657,5.66182 13.288645,8.4925 23.442497,8.4925 8.656509,0 15.628546,-1.80134 20.916036,-5.40432 5.287489,-3.64977 8.937149,-8.4697 10.949202,-14.45907 1.497342,-4.58561 2.246375,-11.13641 2.246375,-19.65254 V 64.940222 Z" />
    <g
       aria-label="Jetty"
       id="text511"
       style="font-size:50.8px;font-family:Roboto;-inkscape-font-specification:Roboto;opacity:0.99;stroke-width:0.529167;stroke-linecap:round">
      <path
         d="m 181.63279,72.478942 h 4.7873 v 25.573632 q 0,5.184176 -3.12539,8.111136 -3.10058,2.92695 -8.28476,2.92695 -5.38262,0 -8.38399,-2.75332 -3.00137,-2.75332 -3.00137,-7.714258 h 4.7625 q 0,3.100588 1.68672,4.836918 1.71153,1.73632 4.93614,1.73632 2.95175,0 4.7625,-1.86035 1.83554,-1.86035 1.86035,-5.208982 z"
         id="path683" />
      <path
         d="m 204.94919,109.09066 q -5.45703,0 -8.88007,-3.57187 -3.42305,-3.59668 -3.42305,-9.599419 v -0.843359 q 0,-3.993555 1.51309,-7.118945 1.53789,-3.150196 4.2664,-4.911328 2.75332,-1.785938 5.95313,-1.785938 5.23379,0 8.13593,3.447852 2.90215,3.447851 2.90215,9.872265 v 1.909961 h -18.18183 q 0.0992,3.968751 2.30683,6.424411 2.23242,2.43086 5.65547,2.43086 2.43086,0 4.11758,-0.99219 1.68672,-0.99218 2.95176,-2.62929 l 2.80293,2.18281 q -3.37344,5.18418 -10.12032,5.18418 z m -0.5705,-24.060546 q -2.77813,0 -4.66328,2.033984 -1.88516,2.00918 -2.33165,5.655469 h 13.44414 v -0.347266 q -0.19843,-3.497461 -1.88515,-5.407422 -1.68672,-1.934765 -4.56406,-1.934765 z"
         id="path685" />
      <path
         d="m 226.95095,75.257067 v 6.498828 h 5.01055 v 3.54707 h -5.01055 v 16.643945 q 0,1.6123 0.66973,2.43086 0.66973,0.79375 2.28203,0.79375 0.79375,0 2.18281,-0.29766 v 3.72071 q -1.81074,0.49609 -3.52226,0.49609 -3.07578,0 -4.63848,-1.86035 -1.5627,-1.86035 -1.5627,-5.2834 V 85.302965 h -4.88652 v -3.54707 h 4.88652 v -6.498828 z"
         id="path687" />
      <path
         d="m 243.54529,75.257067 v 6.498828 h 5.01055 v 3.54707 h -5.01055 v 16.643945 q 0,1.6123 0.66973,2.43086 0.66972,0.79375 2.28203,0.79375 0.79375,0 2.18281,-0.29766 v 3.72071 q -1.81074,0.49609 -3.52227,0.49609 -3.07578,0 -4.63847,-1.86035 -1.5627,-1.86035 -1.5627,-5.2834 V 85.302965 h -4.88652 v -3.54707 h 4.88652 v -6.498828 z"
         id="path689" />
      <path
         d="m 262.69451,101.8725 6.25078,-20.116605 h 4.91133 l -10.79004,30.981055 q -2.50527,6.69726 -7.9623,6.69726 l -0.86817,-0.0744 -1.71152,-0.32246 v -3.7207 l 1.24023,0.0992 q 2.33164,0 3.62149,-0.94258 1.31465,-0.94258 2.158,-3.44785 l 1.017,-2.72852 -9.57461,-26.541015 h 5.01054 z"
         id="path691" />
    </g>
    <g
       aria-label="Scorecard"
       id="text515"
       style="font-size:50.8px;font-family:Roboto;-inkscape-font-specification:Roboto;opacity:0.99;stroke-width:0.529167;stroke-linecap:round">
      <path
         d="m 119.94354,140.87899 q -6.12676,-1.76113 -8.92969,-4.31601 -2.77812,-2.57969 -2.77812,-6.35 0,-4.26641 3.39824,-7.04453 3.42305,-2.80293 8.88008,-2.80293 3.7207,0 6.62285,1.43867 2.92695,1.43867 4.51445,3.96875 1.61231,2.53008 1.61231,5.53144 h -4.78731 q 0,-3.27422 -2.08359,-5.13457 -2.0836,-1.88515 -5.87871,-1.88515 -3.52227,0 -5.50664,1.56269 -1.95957,1.53789 -1.95957,4.29121 0,2.20762 1.86035,3.74551 1.88515,1.51309 6.3748,2.77813 4.51446,1.26503 7.04453,2.80292 2.55489,1.51309 3.77032,3.54708 1.24023,2.03398 1.24023,4.7873 0,4.39043 -3.42305,7.04453 -3.42304,2.6293 -9.15293,2.6293 -3.7207,0 -6.94531,-1.41387 -3.22461,-1.43867 -4.98574,-3.91914 -1.73633,-2.48047 -1.73633,-5.63066 h 4.78731 q 0,3.27421 2.40605,5.18418 2.43086,1.88515 6.47402,1.88515 3.77032,0 5.7795,-1.53789 2.00918,-1.53789 2.00918,-4.19199 0,-2.6541 -1.86036,-4.09277 -1.86035,-1.46348 -6.74687,-2.87735 z"
         id="path694" />
      <path
         d="m 149.48592,153.72782 q 2.45567,0 4.29121,-1.48828 1.83555,-1.48828 2.03399,-3.7207 h 4.34082 q -0.12403,2.30683 -1.5875,4.39043 -1.46348,2.08359 -3.91914,3.32382 -2.43086,1.24024 -5.15938,1.24024 -5.48183,0 -8.73125,-3.64629 -3.22461,-3.6711 -3.22461,-10.02109 V 143.037 q 0,-3.91914 1.43867,-6.97012 1.43868,-3.05097 4.11758,-4.73769 2.70371,-1.68672 6.37481,-1.68672 4.51445,0 7.49101,2.70371 3.00137,2.70371 3.19981,7.01973 h -4.34082 q -0.19844,-2.6045 -1.98438,-4.26641 -1.76113,-1.68672 -4.36562,-1.68672 -3.49746,0 -5.43223,2.53008 -1.90996,2.50527 -1.90996,7.26777 v 0.86817 q 0,4.63847 1.90996,7.14375 1.90996,2.50527 5.45703,2.50527 z"
         id="path696" />
      <path
         d="m 164.09588,143.30985 q 0,-3.94394 1.53789,-7.09414 1.5627,-3.15019 4.31602,-4.86172 2.77812,-1.71152 6.32519,-1.71152 5.48184,0 8.85527,3.79512 3.39825,3.79511 3.39825,10.0955 v 0.32246 q 0,3.91914 -1.51309,7.04454 -1.48828,3.10058 -4.29121,4.83691 -2.77812,1.73633 -6.39961,1.73633 -5.45703,0 -8.85527,-3.79512 -3.37344,-3.79512 -3.37344,-10.0459 z m 4.61367,0.5457 q 0,4.46485 2.05879,7.16856 2.08359,2.70371 5.55625,2.70371 3.49746,0 5.55625,-2.72852 2.05879,-2.75332 2.05879,-7.68945 0,-4.41523 -2.1084,-7.14375 -2.08359,-2.75332 -5.55625,-2.75332 -3.39824,0 -5.48183,2.70371 -2.0836,2.70371 -2.0836,7.73906 z"
         id="path698" />
      <path
         d="m 207.25604,134.25614 q -1.0418,-0.17363 -2.25723,-0.17363 -4.51445,0 -6.12676,3.84472 v 19.05 h -4.58886 v -26.83867 h 4.46484 l 0.0744,3.10059 q 2.25722,-3.59668 6.3996,-3.59668 1.33946,0 2.03399,0.34726 z"
         id="path700" />
      <path
         d="m 222.13885,157.47333 q -5.45704,0 -8.88008,-3.57188 -3.42305,-3.59668 -3.42305,-9.59941 v -0.84336 q 0,-3.99356 1.51309,-7.11895 1.53789,-3.15019 4.2664,-4.91132 2.75332,-1.78594 5.95313,-1.78594 5.23379,0 8.13594,3.44785 2.90214,3.44785 2.90214,9.87227 v 1.90996 h -18.18183 q 0.0992,3.96875 2.30683,6.42441 2.23243,2.43086 5.65547,2.43086 2.43086,0 4.11758,-0.99219 1.68672,-0.99219 2.95176,-2.62929 l 2.80293,2.18281 q -3.37344,5.18418 -10.12031,5.18418 z m -0.57051,-24.06055 q -2.77813,0 -4.66328,2.03399 -1.88516,2.00918 -2.33164,5.65546 h 13.44414 v -0.34726 q -0.19844,-3.49746 -1.88516,-5.40742 -1.68672,-1.93477 -4.56406,-1.93477 z"
         id="path702" />
      <path
         d="m 248.67986,153.72782 q 2.45567,0 4.29121,-1.48828 1.83555,-1.48828 2.03399,-3.7207 h 4.34082 q -0.12403,2.30683 -1.5875,4.39043 -1.46348,2.08359 -3.91914,3.32382 -2.43086,1.24024 -5.15938,1.24024 -5.48183,0 -8.73125,-3.64629 -3.22461,-3.6711 -3.22461,-10.02109 V 143.037 q 0,-3.91914 1.43867,-6.97012 1.43868,-3.05097 4.11758,-4.73769 2.70371,-1.68672 6.37481,-1.68672 4.51445,0 7.49101,2.70371 3.00137,2.70371 3.19981,7.01973 h -4.34082 q -0.19844,-2.6045 -1.98438,-4.26641 -1.76113,-1.68672 -4.36562,-1.68672 -3.49746,0 -5.43223,2.53008 -1.90996,2.50527 -1.90996,7.26777 v 0.86817 q 0,4.63847 1.90996,7.14375 1.90996,2.50527 5.45703,2.50527 z"
         id="path704" />
      <path
         d="m 281.07478,156.97723 q -0.39688,-0.79375 -0.64492,-2.82773 -3.19981,3.32383 -7.63985,3.32383 -3.96875,0 -6.52363,-2.23242 -2.53008,-2.25723 -2.53008,-5.70508 0,-4.19199 3.175,-6.49883 3.19981,-2.33164 8.9793,-2.33164 h 4.46484 v -2.1084 q 0,-2.40605 -1.43867,-3.81992 -1.43867,-1.43867 -4.2416,-1.43867 -2.45566,0 -4.11758,1.24023 -1.66191,1.24024 -1.66191,3.00137 h -4.61367 q 0,-2.00918 1.41386,-3.86953 1.43868,-1.88516 3.86954,-2.97657 2.45566,-1.0914 5.38261,-1.0914 4.63848,0 7.26778,2.33164 2.62929,2.30684 2.72851,6.3748 v 12.35274 q 0,3.6959 0.94258,5.87871 v 0.39687 z m -7.61504,-3.49746 q 2.15801,0 4.09277,-1.11621 1.93477,-1.11621 2.80293,-2.90215 v -5.50664 h -3.59668 q -8.43359,0 -8.43359,4.93614 0,2.158 1.43867,3.37343 1.43867,1.21543 3.6959,1.21543 z"
         id="path706" />
      <path
         d="m 305.11053,134.25614 q -1.0418,-0.17363 -2.25723,-0.17363 -4.51445,0 -6.12675,3.84472 v 19.05 h -4.58887 v -26.83867 h 4.46484 l 0.0744,3.10059 q 2.25722,-3.59668 6.39961,-3.59668 1.33945,0 2.03398,0.34726 z"
         id="path708" />
      <path
         d="m 307.73982,143.33466 q 0,-6.17637 2.92696,-9.92188 2.92695,-3.77031 7.66464,-3.77031 4.71289,0 7.46621,3.22461 v -13.98985 h 4.58887 v 38.1 h -4.2168 l -0.22324,-2.87734 q -2.75332,3.37344 -7.66465,3.37344 -4.66328,0 -7.61503,-3.81992 -2.92696,-3.81993 -2.92696,-9.97149 z m 4.58887,0.52089 q 0,4.56407 1.88516,7.14375 1.88515,2.57969 5.20898,2.57969 4.36562,0 6.3748,-3.91914 v -12.32793 q -2.05878,-3.79512 -6.32519,-3.79512 -3.37344,0 -5.25859,2.6045 -1.88516,2.60449 -1.88516,7.71425 z"
         id="path710" />
    </g>
  </g>
</svg>
